Genre:Comedy | Romance
Language:English
IMDb:http://www.imdb.com/title/tt1481572/
Source:BluRay.x264.HD4U


Format                           : Matroska
File size                        : 1.77 GiB
Duration                         : 1h 38mn
Overall bit rate                 : 2 575 Kbps


Video
Format settings, CABAC           : Yes
Format settings, ReFrames        : 4 frames
Codec ID                         : V_MPEG4/ISO/AVC
Duration                         : 1h 38mn
Bit rate                         : 2 200 Kbps
Width                            : 1 280 pixels
Height                           : 720 pixels
Display aspect ratio             : 16:9
Frame rate mode                  : Variable
Frame rate                       : 23.976 fps
Color space                      : YUV
Chroma subsampling               : 4:2:0
Bit depth                        : 8 bits
Scan type                        : Progressive
Bits/(Pixel*Frame)               : 0.100
Stream size                      : 1.47 GiB (83%)
Writing library                  : x264


Audio
ID                               : 2
Format                           : AC-3
Format/Info                      : Audio Coding 3
Mode extension                   : CM (complete main)
Codec ID                         : A_AC3
Duration                         : 1h 38mn
Bit rate mode                    : Constant
Bit rate                         : 384 Kbps
Channel(s)                       : 6 channels
Channel positions                : Front: L C R, Side: L R, LFE
Sampling rate                    : 48.0 KHz
Bit depth                        : 16 bits
Video delay                      : -1mn 5s
Stream size                      : 271 MiB (15%)
Language                         : English


  
Plot:
  Captures a generational moment - young people on the cusp of truly growing up, tiring of their reflexive cynicism, each in their own ways struggling to connect and define what it means to love and be loved.



 
http://shareimage.org/images/8l4ltjwkkimq8k8a7rm.png
 
http://shareimage.org/images/13plhn5k0wju00wnyet8.png
 
http://shareimage.org/images/zjd08y4sk37cv6vfpjq.png
 
http://shareimage.org/images/ruh8o4jicy64y0eknolk.png
 
http://shareimage.org/images/bq6z5kxbptwg4tz9cnn4.png
 
http://shareimage.org/images/2grr33t4l80cs3875zx0.png
 
http://shareimage.org/images/o9j4hesnrgxwxgv11v70.png


Greets:

INK,CRYS,IMAGINE,LKRG,FXG,3Li,FLAWL3SS,TA,iLLUSiON,ViSiON,LU,TheFalcon007,PrisM,Noir,WBZ,LAP,Rx,Kingdom,SAFCuk009+Fabreezy,HDLiTE,TWiZTED,ExtraTorrentRG.ELEKTRI4KA,MAGNAT,CM8
                And to all the other p2p grps past and present 
 



Make sure its a real Feel-Free release @ extratorrent